<svg id="visual" viewBox="0 0 960 540" width="960" height="540" xmlns="http://www.w3.org/2000/svg" xmlns:xlink="http://www.w3.org/1999/xlink" version="1.1"><rect x="0" y="0" width="960" height="540" fill="#ffffff"  opacity="0"></rect><defs><linearGradient id="grad1_0" x1="43.8%" y1="0%" x2="100%" y2="100%"><stop offset="14.444444444444446%" stop-color="#ffffff" stop-opacity="1"></stop><stop offset="85.55555555555554%" stop-color="#ffffff" stop-opacity="1"></stop></linearGradient></defs><defs><linearGradient id="grad2_0" x1="0%" y1="0%" x2="56.3%" y2="100%"><stop offset="14.444444444444446%" stop-color="#ffffff" stop-opacity="1"></stop><stop offset="85.55555555555554%" stop-color="#ffffff" stop-opacity="1"></stop></linearGradient></defs><g transform="translate(960, 0)"><path d="M0 243C-47.1 239.3 -94.2 235.6 -121.5 210.4C-148.8 185.3 -156.3 138.7 -173.2 100C-190.2 61.3 -216.6 30.7 -243 0L0 0Z" fill="#001122"></path></g><g transform="translate(0, 540)"><path d="M0 -243C44.7 -237.9 89.4 -232.8 121.5 -210.4C153.6 -188.1 173.2 -148.5 191.4 -110.5C209.6 -72.5 226.3 -36.3 243 0L0 0Z" fill="#001122"></path></g></svg>