<svg id="visual" viewBox="0 0 960 540" width="960" height="540" xmlns="http://www.w3.org/2000/svg" xmlns:xlink="http://www.w3.org/1999/xlink" version="1.1"><path d="M0 443L40 444.5C80 446 160 449 240 445C320 441 400 430 480 435.8C560 441.7 640 464.3 720 449C800 433.7 880 380.3 920 353.7L960 327L960 541L920 541C880 541 800 541 720 541C640 541 560 541 480 541C400 541 320 541 240 541C160 541 80 541 40 541L0 541Z" fill="#1f2937"></path><path d="M0 412L40 430C80 448 160 484 240 489C320 494 400 468 480 463C560 458 640 474 720 470C800 466 880 442 920 430L960 418L960 541L920 541C880 541 800 541 720 541C640 541 560 541 480 541C400 541 320 541 240 541C160 541 80 541 40 541L0 541Z" fill="#eab308"></path></svg>