<svg id="visual" viewBox="0 0 960 540" width="960" height="540" xmlns="http://www.w3.org/2000/svg" xmlns:xlink="http://www.w3.org/1999/xlink" version="1.1"><path d="M0 389L20 390.8C40 392.7 80 396.3 120 409.5C160 422.7 200 445.3 240 461.7C280 478 320 488 360 491.2C400 494.3 440 490.7 480 481.5C520 472.3 560 457.7 600 459.3C640 461 680 479 720 489.2C760 499.3 800 501.7 840 499.8C880 498 920 492 940 489L960 486L960 541L940 541C920 541 880 541 840 541C800 541 760 541 720 541C680 541 640 541 600 541C560 541 520 541 480 541C440 541 400 541 360 541C320 541 280 541 240 541C200 541 160 541 120 541C80 541 40 541 20 541L0 541Z" fill="#1f2937"></path><path d="M0 515L20 504.3C40 493.7 80 472.3 120 468.3C160 464.3 200 477.7 240 483.7C280 489.7 320 488.3 360 494.7C400 501 440 515 480 521.3C520 527.7 560 526.3 600 514.2C640 502 680 479 720 464.3C760 449.7 800 443.3 840 440.5C880 437.7 920 438.3 940 438.7L960 439L960 541L940 541C920 541 880 541 840 541C800 541 760 541 720 541C680 541 640 541 600 541C560 541 520 541 480 541C440 541 400 541 360 541C320 541 280 541 240 541C200 541 160 541 120 541C80 541 40 541 20 541L0 541Z" fill="#f97316"></path></svg>