<svg id="visual" viewBox="0 0 960 540" width="960" height="540" xmlns="http://www.w3.org/2000/svg" xmlns:xlink="http://www.w3.org/1999/xlink" version="1.1"><path d="M0 31L32 35C64 39 128 47 192 69.2C256 91.3 320 127.7 384 132.5C448 137.3 512 110.7 576 102.5C640 94.3 704 104.7 768 120.3C832 136 896 157 928 167.5L960 178L960 0L928 0C896 0 832 0 768 0C704 0 640 0 576 0C512 0 448 0 384 0C320 0 256 0 192 0C128 0 64 0 32 0L0 0Z" fill="#1f2937" stroke-linecap="round" stroke-linejoin="miter"></path></svg>