<svg id="visual" viewBox="0 0 960 540" width="960" height="540" xmlns="http://www.w3.org/2000/svg" xmlns:xlink="http://www.w3.org/1999/xlink" version="1.1"><path d="M0 371L32 395.2C64 419.3 128 467.7 192 472.5C256 477.3 320 438.7 384 429.8C448 421 512 442 576 460.7C640 479.3 704 495.7 768 504.3C832 513 896 514 928 514.5L960 515L960 541L928 541C896 541 832 541 768 541C704 541 640 541 576 541C512 541 448 541 384 541C320 541 256 541 192 541C128 541 64 541 32 541L0 541Z" fill="#eab308" stroke-linecap="round" stroke-linejoin="miter"></path></svg>